<svg id="svg" version="1.1" xmlns="http://www.w3.org/2000/svg" xmlns:xlink="http://www.w3.org/1999/xlink" width="400" height="400" viewBox="0, 0, 400,400"><g id="svgg"><path id="path0" d="M61.546 55.547 L 60.469 56.719 61.641 55.642 C 62.731 54.639,62.956 54.375,62.718 54.375 C 62.665 54.375,62.138 54.902,61.546 55.547 M337.188 54.473 C 337.188 54.527,337.645 54.984,338.203 55.488 L 339.219 56.406 338.301 55.391 C 337.445 54.444,337.188 54.231,337.188 54.473 M343.438 60.723 C 343.438 60.777,343.895 61.234,344.453 61.738 L 345.469 62.656 344.551 61.641 C 343.695 60.694,343.438 60.481,343.438 60.723 M52.188 160.827 C 23.777 163.580,7.394 192.895,20.078 218.281 C 25.560 229.253,35.835 236.849,48.484 239.282 C 52.940 240.139,346.615 240.159,351.136 239.303 C 382.756 233.315,394.950 195.494,372.634 172.625 C 367.379 167.241,360.916 163.650,352.813 161.615 L 349.531 160.790 201.406 160.756 C 119.937 160.737,52.789 160.769,52.188 160.827 M353.250 168.840 C 384.910 178.762,384.931 221.947,353.281 231.782 L 350.469 232.656 199.844 232.656 L 49.219 232.656 46.719 231.936 C 20.846 224.482,13.950 191.511,34.779 174.846 C 38.789 171.637,44.660 168.956,49.410 168.164 C 50.392 168.000,113.539 167.901,200.781 167.926 L 350.469 167.969 353.250 168.840 M58.459 187.209 C 50.597 188.607,45.009 196.062,45.370 204.671 C 45.739 213.483,52.791 217.615,62.398 214.648 L 64.457 214.012 64.240 211.622 C 63.977 208.718,64.141 208.877,62.130 209.574 C 58.097 210.972,53.578 210.116,52.258 207.704 C 51.400 206.136,51.523 200.357,52.458 198.291 C 54.794 193.133,59.904 190.940,65.228 192.811 C 66.204 193.154,67.097 193.330,67.213 193.202 C 67.837 192.509,69.128 189.003,68.859 188.734 C 67.611 187.486,61.741 186.626,58.459 187.209 M82.656 187.289 C 75.371 189.156,70.338 196.462,70.682 204.671 C 71.340 220.362,93.135 218.584,96.525 202.563 C 98.690 192.329,91.950 184.906,82.656 187.289 M254.082 187.340 C 243.462 189.753,237.737 203.076,243.644 211.631 C 246.174 215.296,252.646 216.594,258.615 214.635 L 260.670 213.960 260.474 212.371 C 260.086 209.202,260.003 208.986,259.266 209.216 C 251.039 211.786,246.970 209.422,247.618 202.449 C 248.336 194.725,254.357 190.490,261.296 192.828 C 262.342 193.180,263.237 193.427,263.284 193.375 C 263.934 192.666,265.255 188.906,264.928 188.695 C 262.593 187.194,257.518 186.560,254.082 187.340 M350.320 187.376 C 341.410 189.770,341.134 198.678,349.822 203.446 C 357.443 207.629,351.376 213.076,343.366 209.242 C 342.473 208.815,341.726 208.494,341.706 208.530 C 338.981 213.315,338.982 213.330,341.934 214.367 C 351.206 217.626,359.456 214.110,359.513 206.875 C 359.543 203.082,358.347 201.500,353.405 198.794 C 349.983 196.921,349.307 195.890,350.161 193.846 C 351.030 191.766,355.311 191.192,358.430 192.737 C 360.051 193.539,360.037 193.547,361.513 190.865 L 362.499 189.074 361.259 188.442 C 358.244 186.904,353.718 186.463,350.320 187.376 M128.844 187.398 C 127.961 187.490,127.479 187.708,127.373 188.064 C 127.219 188.579,123.227 205.348,121.864 211.201 C 121.028 214.793,120.797 214.587,126.138 215.034 C 135.229 215.796,140.883 214.039,143.233 209.721 C 145.029 206.421,144.577 202.704,142.167 200.958 C 140.992 200.108,140.981 200.081,141.663 199.770 C 145.709 197.926,147.000 192.260,144.010 189.468 C 141.981 187.574,135.576 186.699,128.844 187.398 M186.117 200.236 C 184.411 207.411,182.953 213.598,182.878 213.984 C 182.742 214.674,182.796 214.688,185.739 214.688 C 188.592 214.688,188.746 214.653,188.903 213.984 C 188.993 213.598,189.607 211.031,190.266 208.281 L 191.464 203.281 196.357 203.195 C 199.292 203.144,201.250 203.228,201.250 203.405 C 201.250 203.568,200.688 206.044,200.000 208.906 C 199.313 211.769,198.750 214.241,198.750 214.399 C 198.750 214.995,204.629 214.744,204.808 214.141 C 204.897 213.840,206.301 208.039,207.926 201.250 C 209.552 194.461,210.981 188.514,211.103 188.035 L 211.324 187.164 208.242 187.254 L 205.160 187.344 203.924 192.578 L 202.688 197.813 197.729 197.813 C 193.157 197.813,192.782 197.770,192.922 197.266 C 193.005 196.965,193.516 194.820,194.057 192.500 C 194.597 190.180,195.111 188.035,195.197 187.734 C 195.340 187.240,195.061 187.188,192.287 187.189 L 189.219 187.191 186.117 200.236 M323.772 187.525 C 322.323 187.688,321.105 187.854,321.066 187.895 C 320.969 187.994,314.684 214.467,314.686 214.766 C 314.687 214.895,316.018 215.000,317.644 215.000 L 320.601 215.000 320.902 213.828 C 321.068 213.184,321.591 210.934,322.066 208.828 L 322.929 205.000 324.609 205.000 L 326.289 205.000 327.165 206.953 C 327.646 208.027,328.493 210.277,329.046 211.953 L 330.052 215.000 333.307 215.000 C 335.098 215.000,336.563 214.937,336.563 214.859 C 336.563 214.439,334.272 208.486,333.307 206.397 C 332.688 205.059,332.219 203.934,332.263 203.897 C 332.307 203.861,332.994 203.547,333.788 203.201 C 341.050 200.032,341.026 190.377,333.750 188.014 C 331.665 187.337,327.337 187.125,323.772 187.525 M105.156 187.891 C 105.080 188.105,104.301 191.305,103.424 195.000 C 100.088 209.058,98.750 214.747,98.750 214.871 C 98.750 214.942,102.823 215.000,107.800 215.000 L 116.851 215.000 117.195 213.672 C 117.385 212.941,117.671 211.852,117.831 211.250 C 117.991 210.648,118.122 210.051,118.123 209.922 C 118.124 209.793,115.373 209.688,112.010 209.688 C 106.331 209.688,105.907 209.649,106.063 209.141 C 106.248 208.537,111.250 187.768,111.250 187.603 C 111.250 187.263,105.277 187.546,105.156 187.891 M151.440 189.141 C 152.227 191.893,154.716 199.396,155.642 201.807 L 156.516 204.083 155.290 209.151 C 154.616 211.938,154.064 214.395,154.064 214.609 C 154.062 215.298,159.917 215.146,160.112 214.453 C 160.196 214.152,160.781 211.709,161.412 209.024 L 162.559 204.141 165.242 200.899 C 167.735 197.886,175.313 187.896,175.313 187.622 C 175.313 187.555,173.848 187.500,172.059 187.500 L 168.805 187.500 167.322 189.609 C 164.373 193.805,160.867 198.438,160.641 198.438 C 160.380 198.438,159.560 195.811,158.277 190.859 L 157.406 187.500 154.188 187.500 L 150.971 187.500 151.440 189.141 M221.947 193.203 C 218.735 198.088,215.688 203.069,209.952 212.813 L 208.756 214.844 211.620 214.934 C 215.268 215.050,214.984 215.218,216.758 211.898 L 218.273 209.063 223.469 209.063 L 228.665 209.063 228.864 210.512 C 228.973 211.310,229.063 212.646,229.063 213.481 L 229.063 215.000 232.191 215.000 L 235.320 215.000 235.157 213.828 C 235.068 213.184,234.643 209.703,234.214 206.094 C 233.460 199.746,231.674 188.245,231.365 187.745 C 231.281 187.610,229.972 187.500,228.454 187.500 L 225.696 187.500 221.947 193.203 M270.965 188.672 C 270.795 189.316,269.376 195.258,267.811 201.875 C 266.246 208.492,264.892 214.158,264.802 214.465 C 264.651 214.978,264.884 215.016,267.705 214.933 L 270.771 214.844 272.151 209.130 L 273.530 203.415 274.261 204.102 C 275.474 205.242,277.958 209.042,279.495 212.109 L 280.944 215.000 284.214 215.000 L 287.485 215.000 287.202 214.256 C 285.925 210.897,282.534 205.244,279.892 202.068 L 278.622 200.542 280.166 199.255 C 282.053 197.683,286.735 193.433,290.313 190.046 L 292.969 187.531 289.355 187.515 L 285.742 187.500 284.824 188.480 C 283.355 190.048,275.245 197.224,275.102 197.081 C 275.031 197.010,275.471 194.973,276.080 192.554 C 276.689 190.136,277.188 188.009,277.188 187.828 C 277.188 187.622,276.089 187.500,274.231 187.500 L 271.274 187.500 270.965 188.672 M297.217 188.672 C 297.048 189.316,295.627 195.258,294.059 201.875 C 292.491 208.492,291.138 214.152,291.052 214.453 C 290.905 214.965,291.491 215.000,300.279 215.000 L 309.663 215.000 310.007 213.672 C 310.195 212.941,310.412 212.098,310.487 211.797 C 310.563 211.496,310.705 210.969,310.802 210.625 C 310.975 210.015,310.830 210.000,304.709 210.000 C 299.232 210.000,298.438 209.938,298.438 209.512 C 298.438 209.243,298.742 207.697,299.115 206.074 L 299.792 203.125 305.014 203.125 L 310.237 203.125 310.743 201.108 C 311.556 197.871,311.940 198.125,306.250 198.125 C 302.508 198.125,301.250 198.029,301.250 197.742 C 301.250 197.531,301.484 196.268,301.771 194.936 L 302.291 192.513 308.235 192.428 L 314.179 192.344 314.739 190.156 C 315.046 188.953,315.301 187.863,315.305 187.734 C 315.309 187.605,311.310 187.500,306.418 187.500 L 297.524 187.500 297.217 188.672 M137.286 192.210 C 140.277 193.040,140.526 196.274,137.701 197.614 C 136.337 198.261,130.782 198.361,131.018 197.734 C 131.099 197.520,131.424 196.219,131.741 194.844 C 132.467 191.696,133.563 191.176,137.286 192.210 M88.613 193.139 C 94.012 198.183,88.710 210.929,81.503 210.236 C 74.657 209.578,75.547 196.100,82.656 192.755 C 84.477 191.898,87.493 192.093,88.613 193.139 M332.213 193.677 C 334.829 196.605,332.294 199.645,326.806 200.162 C 323.966 200.430,324.006 200.520,325.082 196.224 L 326.030 192.440 328.666 192.548 C 331.189 192.652,331.340 192.700,332.213 193.677 M227.513 194.297 C 227.520 194.598,227.716 196.883,227.948 199.375 C 228.461 204.880,228.811 204.375,224.479 204.375 C 220.193 204.375,220.231 205.036,224.143 198.516 C 226.932 193.869,227.486 193.175,227.513 194.297 M136.061 203.113 C 138.989 204.226,138.855 208.015,135.832 209.589 C 134.697 210.181,128.643 210.586,128.338 210.091 C 128.236 209.927,128.524 208.222,128.977 206.302 L 129.801 202.813 132.536 202.813 C 134.041 202.813,135.627 202.948,136.061 203.113 M54.688 337.598 C 54.688 337.652,55.145 338.109,55.703 338.613 L 56.719 339.531 55.801 338.516 C 54.945 337.569,54.688 337.356,54.688 337.598 M344.199 338.516 L 343.281 339.531 344.297 338.613 C 345.244 337.758,345.456 337.500,345.215 337.500 C 345.161 337.500,344.704 337.957,344.199 338.516 M61.250 344.219 C 61.833 344.820,62.380 345.313,62.466 345.313 C 62.552 345.313,62.146 344.820,61.563 344.219 C 60.979 343.617,60.432 343.125,60.346 343.125 C 60.260 343.125,60.667 343.617,61.250 344.219 M338.574 344.141 L 337.656 345.156 338.672 344.238 C 339.619 343.383,339.831 343.125,339.590 343.125 C 339.536 343.125,339.079 343.582,338.574 344.141 M190.391 399.903 C 190.691 399.982,191.184 399.982,191.484 399.903 C 191.785 399.824,191.539 399.760,190.938 399.760 C 190.336 399.760,190.090 399.824,190.391 399.903 M208.516 399.903 C 208.816 399.982,209.309 399.982,209.609 399.903 C 209.910 399.824,209.664 399.760,209.063 399.760 C 208.461 399.760,208.215 399.824,208.516 399.903 " stroke="none" fill="#f8f8fa" fill-rule="evenodd"></path><path id="path1" d="M195.625 0.219 C 87.386 2.315,0.294 91.318,0.263 199.868 C 0.228 324.035,111.669 417.855,234.251 396.859 C 320.891 382.018,388.169 311.012,398.418 223.594 C 412.573 102.867,317.245 -2.136,195.625 0.219 M233.362 42.811 C 234.699 43.626,235.622 45.186,235.624 46.630 C 235.625 47.815,234.778 50.000,234.317 50.000 C 234.177 50.000,234.063 73.766,234.063 102.813 L 234.063 155.625 235.938 155.625 L 237.813 155.625 237.813 158.125 L 237.813 160.625 242.656 160.625 L 247.500 160.625 247.500 158.125 L 247.500 155.625 249.531 155.625 L 251.563 155.625 251.563 115.313 L 251.563 75.000 269.844 75.000 L 288.125 75.000 288.125 65.350 L 288.125 55.701 287.179 55.309 C 283.002 53.579,284.473 46.755,289.024 46.755 C 293.351 46.755,295.199 52.870,291.506 54.970 L 290.629 55.469 290.627 66.641 L 290.625 77.813 272.813 77.813 L 255.000 77.813 255.000 116.719 L 255.000 155.625 256.094 155.625 L 257.188 155.625 257.188 158.125 L 257.188 160.625 262.031 160.625 L 266.875 160.625 266.875 158.125 L 266.875 155.625 270.000 155.625 L 273.125 155.625 273.125 131.563 L 273.125 107.500 297.031 107.500 C 312.991 107.500,320.938 107.395,320.938 107.183 C 320.938 106.546,322.967 105.627,324.375 105.627 C 327.008 105.627,328.751 107.395,328.749 110.063 C 328.745 114.784,322.504 116.276,320.493 112.037 L 319.971 110.938 297.798 110.938 L 275.625 110.938 275.625 133.281 C 275.625 152.934,275.681 155.625,276.094 155.625 C 276.471 155.625,276.563 156.111,276.563 158.125 L 276.563 160.625 312.459 160.625 C 351.704 160.625,350.696 160.583,356.464 162.468 C 381.836 170.759,392.160 200.346,377.396 222.452 C 370.135 233.323,357.729 240.000,344.789 240.000 L 341.563 240.000 341.563 246.854 C 341.563 253.213,341.604 253.721,342.132 253.889 C 345.177 254.855,345.565 260.152,342.719 261.888 C 337.964 264.787,333.308 257.582,337.848 254.350 L 338.750 253.707 338.750 246.854 L 338.750 240.000 318.594 240.000 L 298.438 240.000 298.438 241.406 L 298.438 242.813 288.906 242.813 L 279.375 242.813 279.375 246.875 L 279.375 250.938 274.531 250.938 L 269.688 250.938 269.688 246.875 L 269.688 242.813 264.844 242.813 L 260.000 242.813 260.000 246.875 L 260.000 250.938 255.156 250.938 L 250.313 250.938 250.313 246.867 L 250.313 242.796 245.547 242.882 L 240.781 242.969 240.694 246.953 L 240.606 250.938 235.772 250.938 L 230.938 250.938 230.938 246.875 L 230.938 242.813 226.250 242.813 L 221.563 242.813 221.563 246.875 L 221.563 250.938 220.313 250.938 L 219.063 250.938 219.063 300.726 L 219.063 350.514 217.458 351.820 L 215.853 353.125 199.802 353.125 C 185.513 353.125,183.750 353.178,183.750 353.609 C 183.750 357.464,177.223 358.497,175.522 354.912 C 173.529 350.712,178.237 346.323,181.861 349.002 C 182.776 349.679,213.466 350.136,215.131 349.498 C 215.579 349.326,215.625 344.685,215.625 300.123 L 215.625 250.938 213.759 250.938 L 211.894 250.938 211.806 246.953 L 211.719 242.969 206.953 242.882 L 202.188 242.796 202.188 246.867 L 202.188 250.938 200.313 250.938 L 198.438 250.938 198.438 288.907 C 198.438 326.280,198.447 326.896,199.063 328.043 C 201.322 332.259,196.643 336.790,192.832 334.076 C 189.753 331.884,190.937 325.946,194.453 325.939 C 194.971 325.938,195.000 323.943,195.000 288.438 L 195.000 250.938 193.750 250.938 L 192.500 250.938 192.500 246.867 L 192.500 242.796 187.734 242.882 L 182.969 242.969 182.881 246.953 L 182.794 250.937 180.147 250.938 L 177.500 250.938 177.500 296.205 L 177.500 341.472 175.653 342.767 L 173.807 344.063 160.518 344.063 C 147.740 344.063,147.222 344.085,147.041 344.656 C 145.678 348.952,138.750 347.651,138.750 343.099 C 138.750 338.632,143.132 336.702,146.142 339.844 L 147.489 341.250 160.205 341.250 C 171.597 341.250,172.979 341.196,173.491 340.733 C 174.294 340.006,174.396 250.938,173.594 250.938 C 173.201 250.938,173.125 250.278,173.125 246.875 L 173.125 242.813 168.438 242.813 L 163.750 242.813 163.750 246.875 L 163.750 250.938 161.563 250.938 L 159.375 250.938 159.370 270.547 C 159.368 281.332,159.262 290.300,159.136 290.476 C 159.010 290.651,158.283 291.319,157.522 291.960 L 156.138 293.125 139.475 293.125 L 122.813 293.125 122.813 293.787 C 122.813 295.218,120.575 296.875,118.641 296.875 C 113.487 296.875,112.483 289.507,117.451 288.135 C 119.285 287.629,122.500 289.042,122.500 290.355 C 122.500 290.504,129.796 290.625,138.714 290.625 L 154.928 290.625 155.433 289.855 C 155.883 289.167,155.938 287.044,155.938 270.031 L 155.938 250.977 154.922 250.879 L 153.906 250.781 153.819 246.797 L 153.731 242.813 146.397 242.813 L 139.063 242.813 139.063 241.406 L 139.063 240.000 110.469 240.000 L 81.875 240.000 81.875 250.679 C 81.875 260.213,81.931 261.419,82.397 261.933 C 84.495 264.253,82.066 269.058,78.793 269.061 C 73.701 269.067,72.693 261.374,77.624 260.136 L 78.438 259.932 78.438 249.986 L 78.438 240.039 63.984 239.916 C 51.666 239.810,49.185 239.712,47.188 239.248 C 10.686 230.785,3.942 183.051,36.719 165.150 C 39.304 163.738,44.784 161.750,47.109 161.381 L 48.438 161.170 48.438 159.499 C 48.438 157.961,48.364 157.790,47.505 157.346 C 43.807 155.434,45.435 149.060,49.620 149.064 C 53.625 149.067,55.644 153.797,52.864 156.666 C 52.039 157.517,51.875 157.929,51.875 159.156 L 51.875 160.625 101.406 160.625 L 150.938 160.625 150.938 158.125 L 150.938 155.625 153.438 155.625 L 155.938 155.625 155.938 152.813 L 155.938 150.000 131.323 150.000 L 106.709 150.000 106.162 151.540 C 104.473 156.295,97.809 154.886,97.814 149.776 C 97.817 146.646,102.045 144.133,104.240 145.956 C 104.701 146.338,108.914 146.430,132.001 146.563 L 159.219 146.719 159.305 151.172 L 159.392 155.625 160.165 155.625 C 160.922 155.625,160.938 155.674,160.938 158.125 L 160.938 160.625 165.625 160.625 L 170.313 160.625 170.313 158.125 L 170.313 155.625 172.188 155.625 L 174.063 155.625 174.063 146.563 L 174.063 137.500 160.469 137.500 C 146.974 137.500,146.875 137.505,146.875 138.141 C 146.875 142.135,140.395 143.284,138.647 139.599 C 136.469 135.009,142.206 130.580,145.622 134.215 L 146.359 135.000 161.929 135.000 L 177.500 135.000 177.500 145.313 L 177.500 155.625 178.750 155.625 L 180.000 155.625 180.000 158.125 L 180.000 160.625 184.844 160.625 L 189.688 160.625 189.688 158.125 L 189.688 155.625 191.094 155.625 L 192.500 155.625 192.500 139.063 L 192.500 122.500 178.750 122.500 L 165.000 122.500 165.000 103.115 C 165.000 84.924,164.966 83.720,164.453 83.567 C 159.493 82.083,160.286 74.694,165.406 74.689 C 168.852 74.685,170.994 78.803,169.063 81.719 C 168.460 82.628,168.442 83.222,168.440 101.328 L 168.438 120.000 181.719 120.000 L 195.000 120.000 195.000 137.813 L 195.000 155.625 197.188 155.625 L 199.375 155.625 199.375 158.125 L 199.375 160.625 204.063 160.625 L 208.750 160.625 208.750 158.125 L 208.750 155.625 210.938 155.625 L 213.125 155.625 213.125 128.475 L 213.125 101.324 211.785 100.987 C 206.759 99.721,207.639 92.190,212.813 92.190 C 216.271 92.190,218.247 95.690,216.563 98.832 C 215.951 99.973,215.938 100.595,215.938 127.811 L 215.938 155.625 217.344 155.625 L 218.750 155.625 218.750 158.125 L 218.750 160.625 223.438 160.625 L 228.125 160.625 228.125 158.125 L 228.125 155.625 229.375 155.625 L 230.625 155.625 230.625 103.515 L 230.625 51.406 229.333 50.781 C 226.159 49.246,226.047 44.695,229.138 42.811 C 230.436 42.019,232.064 42.019,233.362 42.811 M52.422 168.028 C 51.914 168.161,51.875 168.947,51.875 178.955 C 51.875 184.887,51.980 189.692,52.109 189.634 C 52.238 189.575,53.117 189.121,54.063 188.623 C 58.404 186.338,65.809 186.290,68.868 188.527 C 69.686 189.126,67.556 193.973,66.645 193.587 C 59.332 190.490,52.613 194.028,51.952 201.324 L 51.788 203.125 61.001 203.125 L 70.214 203.125 70.721 200.551 C 72.783 190.086,83.040 183.878,91.473 187.990 C 95.808 190.104,98.116 196.225,96.802 202.122 L 96.573 203.151 98.967 203.060 L 101.361 202.969 103.236 195.078 L 105.112 187.188 108.358 187.188 C 111.304 187.188,111.589 187.238,111.441 187.734 C 111.224 188.456,107.813 202.793,107.813 202.980 C 107.813 203.060,111.365 203.125,115.706 203.125 L 123.600 203.125 125.420 195.391 C 126.422 191.137,127.284 187.612,127.338 187.559 C 127.391 187.505,128.222 187.380,129.186 187.281 C 130.620 187.133,130.938 186.995,130.938 186.519 C 130.938 185.957,130.093 185.938,105.391 185.950 L 79.844 185.962 79.218 186.956 C 77.251 190.084,72.086 188.889,71.383 185.143 C 70.547 180.685,76.737 177.861,79.220 181.568 L 79.844 182.498 105.391 182.499 L 130.938 182.500 130.938 181.563 L 130.938 180.625 135.000 180.625 L 139.063 180.625 139.063 174.219 L 139.063 167.813 96.016 167.849 C 72.340 167.869,52.723 167.949,52.422 168.028 M298.438 177.500 L 298.438 187.188 307.031 187.188 C 311.758 187.188,315.623 187.223,315.621 187.266 C 315.619 187.309,315.410 188.117,315.156 189.063 C 314.457 191.669,314.364 191.563,317.321 191.563 L 319.955 191.563 320.344 189.826 C 320.883 187.416,321.035 187.364,327.500 187.353 C 333.760 187.342,335.359 187.811,337.628 190.322 L 338.748 191.563 341.484 191.562 C 344.186 191.561,344.226 191.549,344.844 190.610 C 347.537 186.512,357.612 185.349,362.030 188.625 C 362.596 189.045,361.597 191.739,360.157 193.676 C 360.123 193.722,359.335 193.420,358.407 193.006 C 357.478 192.592,356.220 192.167,355.609 192.061 L 354.500 191.870 354.628 192.968 C 354.834 194.734,354.425 196.127,353.408 197.121 L 352.460 198.049 354.433 199.157 C 360.338 202.475,361.600 208.405,357.318 212.713 C 354.525 215.523,347.544 216.593,342.891 214.924 L 341.563 214.448 341.563 223.679 L 341.563 232.909 345.547 232.709 C 377.032 231.133,388.545 190.706,362.453 173.345 C 354.486 168.044,352.800 167.813,322.118 167.813 L 298.438 167.813 298.438 177.500 M44.844 169.621 C 14.301 180.062,15.907 223.355,47.150 231.807 C 50.142 232.617,50.222 232.621,64.297 232.739 L 78.438 232.858 78.438 228.255 C 78.438 223.803,78.464 223.619,79.235 222.608 L 80.032 221.563 105.485 221.563 L 130.938 221.563 130.938 220.313 L 130.938 219.063 135.000 219.063 L 139.063 219.063 139.063 216.455 L 139.063 213.847 137.266 214.479 C 134.437 215.473,121.994 215.536,121.019 214.560 C 120.910 214.451,122.202 208.674,122.686 207.109 C 122.844 206.598,122.332 206.563,114.902 206.563 L 106.949 206.563 106.600 207.951 C 106.407 208.714,106.250 209.418,106.250 209.513 C 106.250 209.609,108.973 209.688,112.302 209.688 L 118.353 209.688 117.707 212.344 L 117.060 215.000 107.728 215.000 C 98.984 215.000,98.406 214.966,98.564 214.453 C 98.919 213.298,100.312 207.325,100.312 206.953 C 100.312 206.673,99.606 206.563,97.819 206.563 L 95.325 206.563 94.648 207.891 C 89.523 217.939,73.920 218.248,70.999 208.360 L 70.469 206.563 61.328 206.563 C 51.576 206.562,51.686 206.542,52.806 208.116 C 54.190 210.060,58.030 210.596,61.912 209.388 C 62.994 209.051,63.912 208.808,63.953 208.849 C 64.063 208.959,64.682 212.889,64.685 213.493 C 64.694 215.399,54.373 216.315,51.094 214.699 C 44.874 211.634,43.180 203.174,47.222 195.364 L 48.445 193.001 48.363 180.723 L 48.281 168.446 44.844 169.621 M83.907 192.543 C 80.437 193.353,76.875 198.546,76.875 202.796 C 76.875 203.016,79.050 203.125,83.432 203.125 L 89.988 203.125 90.228 202.266 C 91.905 196.270,88.747 191.414,83.907 192.543 M131.903 195.024 C 131.544 196.583,131.250 197.939,131.250 198.036 C 131.250 198.497,136.889 197.862,137.871 197.290 C 138.829 196.732,138.913 196.553,139.000 194.897 C 139.115 192.704,138.300 192.188,134.726 192.188 L 132.556 192.188 131.903 195.024 M306.624 196.484 L 306.719 197.969 309.141 198.060 C 310.473 198.110,311.559 198.251,311.555 198.373 C 311.551 198.494,311.297 199.578,310.989 200.781 L 310.430 202.969 305.219 203.054 L 300.008 203.140 299.815 203.992 C 299.709 204.460,299.426 205.637,299.186 206.608 C 298.946 207.578,298.750 208.527,298.750 208.717 C 298.750 208.951,300.012 209.063,302.656 209.063 C 305.052 209.063,306.563 209.183,306.563 209.375 C 306.563 209.554,307.512 209.688,308.785 209.688 L 311.008 209.688 310.798 211.094 L 310.587 212.500 312.793 212.500 C 314.007 212.500,315.000 212.453,315.000 212.397 C 315.000 212.340,315.914 208.470,317.031 203.798 C 318.148 199.125,319.063 195.234,319.063 195.151 C 319.063 195.068,316.242 195.000,312.795 195.000 L 306.528 195.000 306.624 196.484 M325.491 195.381 C 325.423 195.601,325.209 196.484,325.014 197.344 C 324.819 198.203,324.580 199.171,324.483 199.495 C 324.318 200.046,324.469 200.075,326.785 199.941 C 330.751 199.711,332.727 198.468,332.900 196.094 L 332.969 195.156 329.291 195.068 C 326.510 195.002,325.583 195.078,325.491 195.381 M339.280 196.541 C 338.926 199.528,336.909 202.095,333.966 203.303 C 333.158 203.635,332.560 204.047,332.637 204.219 C 332.713 204.391,333.510 206.324,334.407 208.516 L 336.037 212.500 337.688 212.500 L 339.338 212.500 340.510 210.357 L 341.682 208.214 343.583 209.103 C 351.620 212.864,357.048 207.502,349.355 203.402 C 345.657 201.430,343.438 198.691,343.438 196.097 L 343.438 195.000 341.450 195.000 L 339.462 195.000 339.280 196.541 M322.382 208.272 C 321.221 212.906,320.940 212.500,325.308 212.500 L 329.053 212.500 327.983 209.505 C 326.496 205.345,326.234 205.000,324.563 205.000 L 323.202 205.000 322.382 208.272 M77.500 207.068 C 77.500 207.346,78.061 208.135,78.748 208.821 L 79.995 210.069 82.276 209.953 C 84.656 209.833,86.535 208.884,87.709 207.207 C 88.160 206.564,88.152 206.563,82.830 206.563 C 78.128 206.563,77.500 206.622,77.500 207.068 M128.787 207.951 C 128.595 208.714,128.438 209.488,128.438 209.670 C 128.438 209.883,129.519 209.982,131.484 209.949 C 134.013 209.907,134.239 209.867,132.813 209.715 L 131.094 209.531 130.999 208.047 C 130.858 205.861,129.330 205.794,128.787 207.951 M306.563 217.344 L 306.563 218.750 302.500 218.750 L 298.438 218.750 298.438 225.781 L 298.438 232.813 318.594 232.813 L 338.750 232.813 338.750 224.375 L 338.750 215.938 322.656 215.938 L 306.563 215.938 306.563 217.344 M81.685 224.557 C 81.790 224.829,81.875 226.797,81.875 228.932 L 81.875 232.813 110.469 232.813 L 139.063 232.813 139.063 230.781 L 139.063 228.750 135.000 228.750 L 130.938 228.750 130.938 226.406 L 130.938 224.063 106.217 224.063 C 83.803 224.063,81.513 224.109,81.685 224.557 M236.563 285.727 L 236.563 319.891 237.347 320.628 C 241.235 324.280,236.108 330.503,231.629 327.569 C 228.636 325.607,230.069 319.384,233.516 319.376 C 234.033 319.375,234.063 317.552,234.063 285.469 L 234.063 251.563 235.313 251.563 L 236.563 251.563 236.563 285.727 M258.125 287.344 L 258.125 323.125 278.009 323.125 L 297.893 323.125 299.104 322.031 C 302.186 319.247,306.530 321.614,306.176 325.884 C 305.828 330.089,300.005 331.403,298.229 327.678 L 297.699 326.567 276.271 326.487 L 254.844 326.406 254.764 288.984 L 254.685 251.563 256.405 251.563 L 258.125 251.563 258.125 287.344 M275.625 276.875 L 275.625 302.188 297.464 302.188 L 319.303 302.188 319.825 301.391 C 322.843 296.786,329.754 301.071,327.333 306.047 C 325.789 309.221,321.079 309.181,319.532 305.980 L 318.907 304.688 296.016 304.688 L 273.125 304.688 273.125 278.125 L 273.125 251.563 274.375 251.563 L 275.625 251.563 275.625 276.875 " stroke="none" fill="#052d7e" fill-rule="evenodd"></path><path id="path2" d="M195.551 0.221 C 195.939 0.296,196.502 0.293,196.801 0.215 C 197.099 0.136,196.781 0.075,196.094 0.079 C 195.406 0.082,195.162 0.146,195.551 0.221 M203.363 0.221 C 203.752 0.296,204.314 0.293,204.613 0.215 C 204.912 0.136,204.594 0.075,203.906 0.079 C 203.219 0.082,202.974 0.146,203.363 0.221 M228.875 43.093 C 225.981 44.858,226.606 49.869,229.854 50.941 L 230.938 51.298 230.938 103.462 L 230.938 155.625 229.688 155.625 L 228.438 155.625 228.438 158.125 L 228.438 160.625 233.125 160.625 L 237.813 160.625 237.813 158.125 L 237.813 155.625 235.938 155.625 L 234.063 155.625 234.063 102.987 L 234.063 50.348 234.740 49.201 C 237.138 45.136,232.850 40.669,228.875 43.093 M286.835 47.401 C 284.091 49.105,284.213 53.379,287.054 55.055 L 288.125 55.687 288.125 65.500 L 288.125 75.313 269.844 75.313 L 251.563 75.313 251.563 115.469 L 251.563 155.625 249.531 155.625 L 247.500 155.625 247.500 158.125 L 247.500 160.625 252.344 160.625 L 257.188 160.625 257.188 158.125 L 257.188 155.625 255.938 155.625 L 254.688 155.625 254.688 116.563 L 254.688 77.500 272.656 77.500 L 290.625 77.500 290.625 66.484 L 290.625 55.469 291.708 54.605 C 293.952 52.814,293.791 48.974,291.411 47.503 C 290.171 46.737,287.984 46.688,286.835 47.401 M64.199 53.203 L 63.281 54.219 64.297 53.301 C 65.244 52.445,65.456 52.188,65.215 52.188 C 65.161 52.188,64.704 52.645,64.199 53.203 M334.688 52.285 C 334.688 52.339,335.145 52.796,335.703 53.301 L 336.719 54.219 335.801 53.203 C 334.945 52.256,334.688 52.044,334.688 52.285 M164.232 74.902 C 160.385 75.965,160.284 82.451,164.102 83.290 L 165.000 83.487 165.000 102.994 L 165.000 122.500 166.563 122.500 L 168.125 122.500 168.125 102.829 L 168.125 83.158 168.906 81.689 C 170.897 77.945,168.070 73.841,164.232 74.902 M210.720 92.799 C 207.156 94.972,208.438 100.938,212.470 100.938 L 213.438 100.938 213.438 128.281 L 213.438 155.625 211.250 155.625 L 209.063 155.625 209.063 158.125 L 209.063 160.625 213.750 160.625 L 218.438 160.625 218.438 158.125 L 218.438 155.625 217.031 155.625 L 215.625 155.625 215.627 127.891 C 215.629 100.742,215.642 100.136,216.250 99.219 C 218.783 95.394,214.541 90.469,210.720 92.799 M322.344 106.182 C 321.828 106.507,321.208 107.014,320.966 107.307 C 320.557 107.803,318.828 107.838,296.903 107.797 L 273.281 107.752 273.201 131.689 L 273.121 155.625 269.998 155.625 L 266.875 155.625 266.875 158.125 L 266.875 160.625 271.719 160.625 L 276.563 160.625 276.563 158.125 C 276.563 156.111,276.471 155.625,276.094 155.625 C 275.681 155.625,275.625 152.934,275.625 133.281 L 275.625 110.938 297.935 110.938 L 320.245 110.938 320.423 111.649 C 321.308 115.176,326.948 115.254,328.283 111.759 C 329.770 107.865,325.713 104.055,322.344 106.182 M168.438 121.406 L 168.438 122.500 180.469 122.500 L 192.500 122.500 192.500 139.063 L 192.500 155.625 191.094 155.625 L 189.688 155.625 189.688 158.125 L 189.688 160.625 194.531 160.625 L 199.375 160.625 199.375 158.125 L 199.375 155.625 197.188 155.625 L 195.000 155.625 195.000 137.969 L 195.000 120.313 181.719 120.313 L 168.438 120.313 168.438 121.406 M140.756 133.428 C 138.565 134.314,137.594 138.218,139.090 140.120 C 141.316 142.950,145.585 142.137,146.619 138.685 L 146.974 137.500 160.518 137.500 L 174.063 137.500 174.063 136.250 L 174.063 135.000 160.000 135.000 C 150.698 135.000,145.938 134.893,145.938 134.683 C 145.938 133.599,142.431 132.750,140.756 133.428 M174.375 145.295 L 174.375 155.625 172.500 155.625 L 170.625 155.625 170.625 158.125 L 170.625 160.625 175.313 160.625 L 180.000 160.625 180.000 158.125 L 180.000 155.625 178.754 155.625 L 177.509 155.625 177.426 145.391 L 177.344 135.156 175.859 135.061 L 174.375 134.966 174.375 145.295 M99.795 146.268 C 96.573 148.331,97.817 153.858,101.600 154.284 C 103.943 154.548,106.245 152.775,106.249 150.703 L 106.250 150.000 131.094 150.000 L 155.938 150.000 155.938 152.813 L 155.938 155.625 153.594 155.625 L 151.250 155.625 151.250 158.125 L 151.250 160.625 155.938 160.625 L 160.625 160.625 160.625 158.125 C 160.625 155.667,160.612 155.625,159.844 155.625 L 159.063 155.625 159.063 151.250 L 159.063 146.875 132.343 146.875 C 106.220 146.875,105.597 146.861,104.457 146.250 C 102.962 145.449,101.061 145.456,99.795 146.268 M47.897 149.526 C 44.917 150.821,44.872 155.823,47.826 157.351 C 48.761 157.834,48.800 157.931,48.700 159.505 C 48.614 160.837,48.683 161.135,49.063 161.062 C 49.320 161.012,50.059 160.888,50.703 160.784 L 51.875 160.597 51.875 158.967 C 51.875 157.722,52.011 157.253,52.451 156.978 C 56.660 154.349,52.492 147.528,47.897 149.526 M50.391 168.186 L 48.750 168.485 48.750 180.715 L 48.750 192.945 50.305 191.414 L 51.860 189.882 51.946 178.847 C 51.993 172.778,52.031 167.829,52.031 167.849 C 52.031 167.870,51.293 168.021,50.391 168.186 M151.250 169.688 L 151.250 171.563 155.938 171.563 L 160.625 171.563 160.625 169.688 L 160.625 167.813 155.938 167.813 L 151.250 167.813 151.250 169.688 M170.313 169.688 L 170.313 171.563 175.156 171.563 L 180.000 171.563 180.000 169.688 L 180.000 167.813 175.156 167.813 L 170.313 167.813 170.313 169.688 M189.688 169.688 L 189.688 171.563 194.531 171.563 L 199.375 171.563 199.375 169.688 L 199.375 167.813 194.531 167.813 L 189.688 167.813 189.688 169.688 M209.063 169.688 L 209.063 171.563 213.750 171.563 L 218.438 171.563 218.438 169.688 L 218.438 167.813 213.750 167.813 L 209.063 167.813 209.063 169.688 M228.438 169.688 L 228.438 171.563 233.125 171.563 L 237.813 171.563 237.813 169.688 L 237.813 167.813 233.125 167.813 L 228.438 167.813 228.438 169.688 M247.500 169.688 L 247.500 171.563 252.344 171.563 L 257.188 171.563 257.188 169.688 L 257.188 167.813 252.344 167.813 L 247.500 167.813 247.500 169.688 M266.875 169.688 L 266.875 171.563 271.719 171.563 L 276.563 171.563 276.563 169.688 L 276.563 167.813 271.719 167.813 L 266.875 167.813 266.875 169.688 M73.410 180.713 C 69.552 183.312,71.976 189.382,76.556 188.590 C 77.859 188.365,78.373 188.004,79.331 186.639 L 80.045 185.621 105.569 185.701 L 131.094 185.781 131.190 186.456 C 131.283 187.107,131.451 187.135,135.877 187.243 C 140.866 187.364,142.608 187.839,144.417 189.572 C 144.993 190.124,145.510 190.330,146.136 190.259 L 147.031 190.156 147.118 185.391 L 147.204 180.625 139.227 180.625 L 131.250 180.625 131.250 181.563 L 131.250 182.500 105.480 182.500 C 79.805 182.500,79.708 182.498,79.366 181.858 C 78.396 180.046,75.287 179.448,73.410 180.713 M353.672 186.783 C 354.059 186.858,354.691 186.858,355.078 186.783 C 355.465 186.709,355.148 186.648,354.375 186.648 C 353.602 186.648,353.285 186.709,353.672 186.783 M284.375 188.594 C 283.616 189.367,283.065 190.000,283.151 190.000 C 283.237 190.000,283.928 189.367,284.688 188.594 C 285.447 187.820,285.997 187.188,285.911 187.188 C 285.825 187.188,285.134 187.820,284.375 188.594 M301.563 187.407 C 308.980 187.629,315.554 187.636,315.421 187.422 C 315.341 187.293,311.522 187.217,306.935 187.253 C 302.347 187.289,299.930 187.358,301.563 187.407 M291.085 189.365 C 290.517 189.933,290.476 190.349,290.563 194.678 L 290.656 199.375 292.594 199.374 L 294.531 199.373 295.643 194.608 L 296.754 189.844 293.974 189.754 C 291.577 189.676,291.246 189.600,291.573 189.207 C 292.123 188.543,291.804 188.647,291.085 189.365 M314.400 191.797 L 314.375 192.500 308.459 192.500 C 303.094 192.500,302.527 192.551,302.379 193.047 C 302.186 193.698,301.250 197.792,301.250 197.988 C 301.250 198.063,302.445 198.125,303.906 198.125 L 306.563 198.125 306.563 196.569 L 306.563 195.013 312.870 194.928 L 319.178 194.844 319.557 193.359 L 319.935 191.875 317.337 191.875 C 315.552 191.875,314.690 191.753,314.582 191.484 C 314.495 191.270,314.413 191.410,314.400 191.797 M341.456 191.796 C 338.997 191.889,338.716 191.959,338.904 192.434 C 339.021 192.728,339.192 193.426,339.286 193.984 L 339.457 195.000 341.447 195.000 C 343.240 195.000,343.438 194.937,343.438 194.365 C 343.438 194.016,343.641 193.242,343.890 192.646 C 344.139 192.050,344.315 191.591,344.281 191.627 C 344.247 191.662,342.975 191.738,341.456 191.796 M352.505 192.195 C 350.140 192.751,349.217 195.382,350.824 196.989 C 352.664 198.829,355.152 196.170,354.558 192.999 C 354.336 191.818,354.250 191.785,352.505 192.195 M326.129 192.846 C 326.054 193.085,325.859 193.703,325.695 194.219 L 325.398 195.156 329.125 195.059 C 333.173 194.954,333.610 194.684,331.852 193.373 C 330.796 192.585,326.338 192.175,326.129 192.846 M0.085 195.938 C 0.085 196.711,0.146 197.027,0.221 196.641 C 0.295 196.254,0.295 195.621,0.221 195.234 C 0.146 194.848,0.085 195.164,0.085 195.938 M399.766 196.094 C 399.770 196.781,399.834 197.026,399.909 196.637 C 399.983 196.248,399.980 195.686,399.902 195.387 C 399.824 195.088,399.763 195.406,399.766 196.094 M142.349 200.984 C 144.351 202.742,145.033 205.947,143.954 208.526 L 143.533 209.531 145.360 209.425 L 147.188 209.319 147.188 204.660 L 147.188 200.000 144.208 200.000 L 141.228 200.000 142.349 200.984 M51.613 203.125 C 51.589 203.898,51.651 205.023,51.750 205.625 L 51.931 206.719 61.308 206.632 C 69.634 206.554,70.664 206.490,70.499 206.059 C 70.396 205.792,70.313 205.093,70.313 204.506 L 70.313 203.438 61.115 203.438 L 51.917 203.438 51.786 202.578 C 51.701 202.018,51.641 202.208,51.613 203.125 M0.085 203.750 C 0.085 204.523,0.146 204.840,0.221 204.453 C 0.295 204.066,0.295 203.434,0.221 203.047 C 0.146 202.660,0.085 202.977,0.085 203.750 M399.773 203.750 C 399.773 204.523,399.834 204.840,399.908 204.453 C 399.983 204.066,399.983 203.434,399.908 203.047 C 399.834 202.660,399.773 202.977,399.773 203.750 M131.250 203.161 C 131.250 203.361,130.930 203.449,130.501 203.367 C 129.841 203.241,129.729 203.364,129.564 204.397 C 129.461 205.042,129.291 205.794,129.186 206.066 C 129.034 206.463,129.222 206.563,130.123 206.563 C 131.247 206.563,131.250 206.566,131.250 207.943 L 131.250 209.324 133.516 209.427 C 138.295 209.646,140.091 204.361,135.656 203.128 C 134.115 202.700,131.250 202.722,131.250 203.161 M107.372 204.426 C 107.271 205.055,107.103 205.794,106.998 206.066 C 106.828 206.512,107.629 206.563,114.804 206.563 L 122.801 206.563 122.989 205.703 C 123.092 205.230,123.286 204.492,123.420 204.063 L 123.663 203.281 115.609 203.281 L 107.555 203.281 107.372 204.426 M76.878 203.984 C 76.880 204.285,76.963 205.023,77.063 205.625 L 77.243 206.719 82.841 206.627 L 88.439 206.535 89.063 205.311 C 90.052 203.374,90.249 203.438,83.281 203.438 C 77.387 203.438,76.875 203.481,76.878 203.984 M96.350 203.984 C 96.244 204.285,95.975 204.988,95.751 205.547 L 95.344 206.563 97.950 206.563 L 100.555 206.563 100.765 205.447 C 100.880 204.833,101.051 204.130,101.146 203.884 C 101.285 203.521,100.871 203.438,98.930 203.438 C 96.938 203.438,96.511 203.528,96.350 203.984 M298.437 209.297 C 298.437 209.589,299.459 209.688,302.500 209.688 C 307.833 209.688,307.833 209.127,302.499 209.002 C 299.406 208.929,298.437 208.999,298.437 209.297 M290.625 213.906 L 290.625 218.750 292.734 218.749 C 293.895 218.749,297.480 218.656,300.703 218.543 L 306.563 218.339 306.563 216.982 L 306.563 215.625 323.906 215.625 C 340.741 215.625,341.250 215.608,341.250 215.031 C 341.250 214.681,340.792 214.167,340.138 213.781 C 339.526 213.420,339.113 212.984,339.219 212.812 C 339.339 212.619,338.752 212.500,337.675 212.500 C 336.719 212.500,335.938 212.553,335.938 212.617 C 335.938 212.681,336.142 213.314,336.392 214.023 L 336.847 215.313 333.450 215.313 L 330.052 215.313 329.610 213.984 L 329.168 212.656 325.229 212.569 L 321.290 212.482 321.027 213.819 L 320.763 215.156 317.532 215.246 L 314.302 215.335 314.509 214.464 C 314.624 213.986,314.787 213.359,314.872 213.072 C 315.004 212.623,314.699 212.536,312.692 212.447 L 310.358 212.344 310.160 213.672 L 309.962 215.000 300.450 215.000 C 293.046 215.000,290.939 214.913,290.942 214.609 C 290.947 214.214,291.752 210.615,292.062 209.609 C 292.191 209.187,292.047 209.063,291.427 209.063 L 290.625 209.063 290.625 213.906 M57.113 210.221 C 57.502 210.296,58.064 210.293,58.363 210.215 C 58.662 210.136,58.344 210.075,57.656 210.079 C 56.969 210.082,56.724 210.146,57.113 210.221 M129.922 210.226 C 130.480 210.295,131.395 210.295,131.953 210.226 C 132.512 210.157,132.055 210.100,130.938 210.100 C 129.820 210.100,129.363 210.157,129.922 210.226 M339.063 224.375 L 339.063 232.813 340.156 232.813 L 341.250 232.813 341.250 224.375 L 341.250 215.938 340.156 215.938 L 339.063 215.938 339.063 224.375 M135.234 219.292 L 131.250 219.394 131.250 220.478 L 131.250 221.563 105.668 221.563 L 80.085 221.563 79.261 222.751 C 78.466 223.899,78.437 224.092,78.437 228.376 L 78.438 232.813 80.016 232.813 L 81.595 232.813 81.501 228.437 L 81.406 224.061 106.328 224.062 L 131.250 224.063 131.250 226.406 L 131.250 228.750 139.227 228.750 L 147.204 228.750 147.118 223.984 L 147.031 219.219 143.125 219.204 C 140.977 219.196,137.426 219.236,135.234 219.292 M78.438 249.976 L 78.438 259.952 77.354 260.309 C 72.806 261.810,73.734 268.384,78.536 268.690 C 82.393 268.935,84.091 265.546,82.070 261.638 C 81.632 260.790,81.563 259.250,81.563 250.328 L 81.563 240.000 80.000 240.000 L 78.438 240.000 78.438 249.976 M154.063 245.292 L 154.063 250.583 154.922 250.682 L 155.781 250.781 155.862 270.129 C 155.935 287.799,155.897 289.527,155.423 290.051 C 154.564 291.000,122.688 290.935,122.179 289.983 C 120.247 286.374,114.377 288.267,114.377 292.500 C 114.377 297.138,120.537 298.555,122.394 294.345 L 122.933 293.125 139.470 293.125 L 156.007 293.125 157.532 291.848 L 159.058 290.571 159.138 270.676 L 159.219 250.781 161.328 250.689 L 163.438 250.596 163.438 245.298 L 163.438 240.000 158.750 240.000 L 154.063 240.000 154.063 245.292 M173.438 245.279 C 173.438 249.683,173.515 250.588,173.906 250.738 C 174.320 250.897,174.375 256.170,174.375 295.594 L 174.375 340.270 173.467 340.916 C 172.586 341.544,172.198 341.563,159.905 341.563 L 147.249 341.563 146.637 340.525 C 144.491 336.887,138.750 338.514,138.750 342.760 C 138.750 347.328,144.843 348.910,146.781 344.846 L 147.303 343.750 160.733 343.750 L 174.162 343.750 175.831 342.490 L 177.500 341.230 177.500 295.927 L 177.500 250.625 180.156 250.625 L 182.813 250.625 182.813 245.313 L 182.813 240.000 178.125 240.000 L 173.438 240.000 173.438 245.279 M192.500 245.313 L 192.500 250.625 193.750 250.625 L 195.000 250.625 195.000 288.218 L 195.000 325.812 193.922 326.202 C 189.405 327.835,190.732 335.015,195.477 334.622 C 199.005 334.329,200.901 330.050,198.620 327.529 C 198.170 327.031,198.130 323.365,198.202 288.880 L 198.281 250.781 200.234 250.688 L 202.188 250.595 202.188 245.298 L 202.188 240.000 197.344 240.000 L 192.500 240.000 192.500 245.313 M211.875 245.298 L 211.875 250.595 213.828 250.688 L 215.781 250.781 215.860 299.811 C 215.918 335.788,215.846 348.953,215.588 349.264 C 214.902 350.090,183.018 349.865,181.658 349.025 C 179.283 347.557,175.405 349.236,175.265 351.792 C 174.940 357.754,182.336 359.479,183.597 353.735 L 183.800 352.813 199.947 352.810 L 216.094 352.808 217.578 351.536 L 219.063 350.264 219.063 300.444 L 219.063 250.625 220.156 250.625 L 221.250 250.625 221.250 245.313 L 221.250 240.000 216.563 240.000 L 211.875 240.000 211.875 245.298 M231.250 245.313 L 231.250 250.625 235.938 250.625 L 240.625 250.625 240.625 245.313 L 240.625 240.000 235.938 240.000 L 231.250 240.000 231.250 245.313 M250.421 242.109 C 250.531 243.270,250.622 245.660,250.623 247.422 L 250.625 250.625 255.313 250.625 L 260.000 250.625 260.000 245.313 L 260.000 240.000 255.111 240.000 L 250.222 240.000 250.421 242.109 M269.688 245.313 L 269.688 250.625 274.531 250.625 L 279.375 250.625 279.375 245.313 L 279.375 240.000 274.531 240.000 L 269.688 240.000 269.688 245.313 M339.063 246.754 L 339.063 253.509 337.765 254.660 C 333.865 258.121,337.708 264.210,342.390 261.988 C 345.426 260.548,345.298 255.351,342.196 254.066 L 341.250 253.674 341.250 246.837 L 341.250 240.000 340.156 240.000 L 339.063 240.000 339.063 246.754 M234.063 285.392 L 234.063 319.222 232.565 319.910 C 228.324 321.855,229.586 328.116,234.219 328.116 C 237.532 328.116,239.420 324.822,237.920 321.659 C 237.635 321.059,237.213 320.495,236.982 320.407 C 236.635 320.273,236.563 314.351,236.563 285.904 L 236.563 251.563 235.313 251.563 L 234.063 251.563 234.063 285.392 M255.000 288.906 L 255.000 326.250 276.348 326.250 L 297.697 326.250 298.219 327.346 C 300.137 331.368,306.250 329.834,306.250 325.331 C 306.250 321.365,299.893 319.158,298.550 322.658 C 298.393 323.066,295.812 323.125,278.248 323.125 L 258.125 323.125 258.125 287.344 L 258.125 251.563 256.563 251.563 L 255.000 251.563 255.000 288.906 M273.125 276.875 L 273.125 302.188 274.375 302.188 L 275.625 302.188 275.625 276.875 L 275.625 251.563 274.375 251.563 L 273.125 251.563 273.125 276.875 M321.176 300.177 C 320.705 300.432,320.104 301.059,319.840 301.570 L 319.359 302.500 296.242 302.500 L 273.125 302.500 273.125 303.594 L 273.125 304.688 296.090 304.688 L 319.054 304.688 319.489 305.729 C 321.266 309.981,327.631 308.713,327.615 304.110 C 327.603 300.570,324.239 298.515,321.176 300.177 M196.016 399.903 C 196.316 399.982,196.809 399.982,197.109 399.903 C 197.410 399.824,197.164 399.760,196.563 399.760 C 195.961 399.760,195.715 399.824,196.016 399.903 M202.891 399.903 C 203.191 399.982,203.684 399.982,203.984 399.903 C 204.285 399.824,204.039 399.760,203.438 399.760 C 202.836 399.760,202.590 399.824,202.891 399.903 " stroke="none" fill="#44649c" fill-rule="evenodd"></path><path id="path3" d="M191.493 0.229 C 192.228 0.295,193.353 0.294,193.993 0.227 C 194.633 0.160,194.031 0.106,192.656 0.107 C 191.281 0.108,190.758 0.163,191.493 0.229 M206.180 0.229 C 206.915 0.295,208.040 0.294,208.680 0.227 C 209.320 0.160,208.719 0.106,207.344 0.107 C 205.969 0.108,205.445 0.163,206.180 0.229 M341.094 58.438 C 342.288 59.641,343.335 60.625,343.421 60.625 C 343.507 60.625,342.600 59.641,341.406 58.438 C 340.212 57.234,339.165 56.250,339.079 56.250 C 338.993 56.250,339.900 57.234,341.094 58.438 M58.428 58.672 L 56.406 60.781 58.516 58.759 C 59.676 57.647,60.625 56.698,60.625 56.650 C 60.625 56.420,60.307 56.713,58.428 58.672 M51.488 160.846 C 51.877 160.921,52.439 160.918,52.738 160.840 C 53.037 160.761,52.719 160.700,52.031 160.704 C 51.344 160.707,51.099 160.771,51.488 160.846 M32.017 177.266 L 30.781 178.594 32.109 177.358 C 32.840 176.679,33.438 176.081,33.438 176.030 C 33.438 175.794,33.165 176.030,32.017 177.266 M105.203 187.422 C 105.123 187.551,106.064 187.618,107.294 187.571 C 111.102 187.425,111.542 187.290,108.378 187.238 C 106.712 187.210,105.284 187.293,105.203 187.422 M152.590 187.419 C 153.584 187.481,155.131 187.480,156.027 187.417 C 156.923 187.355,156.109 187.304,154.219 187.304 C 152.328 187.305,151.595 187.357,152.590 187.419 M168.398 187.734 C 168.020 188.216,168.027 188.236,168.456 187.902 C 168.749 187.674,170.307 187.482,172.362 187.421 L 175.781 187.320 172.304 187.254 C 169.314 187.197,168.766 187.264,168.398 187.734 M226.719 187.385 C 228.957 187.617,231.493 187.638,231.359 187.422 C 231.279 187.293,229.991 187.210,228.497 187.238 C 227.003 187.265,226.203 187.331,226.719 187.385 M271.146 187.396 C 271.031 187.510,270.940 187.757,270.942 187.943 C 270.945 188.129,271.065 188.095,271.209 187.868 C 271.404 187.560,272.239 187.481,274.486 187.556 C 276.145 187.611,277.501 187.551,277.501 187.422 C 277.500 187.132,271.434 187.107,271.146 187.396 M289.336 187.421 L 292.890 187.521 292.304 188.214 L 291.719 188.906 292.422 188.311 C 293.606 187.309,293.258 187.185,289.453 187.254 L 285.781 187.321 289.336 187.421 M297.396 187.396 C 297.281 187.510,297.190 187.757,297.192 187.943 C 297.196 188.172,297.271 188.167,297.427 187.927 C 297.553 187.732,297.938 187.502,298.281 187.416 C 298.886 187.265,298.885 187.259,298.255 187.224 C 297.897 187.204,297.510 187.281,297.396 187.396 M282.012 191.016 L 281.094 192.031 282.109 191.113 C 282.668 190.609,283.125 190.152,283.125 190.098 C 283.125 189.856,282.867 190.069,282.012 191.016 M0.105 192.500 C 0.105 193.789,0.160 194.316,0.228 193.672 C 0.295 193.027,0.295 191.973,0.228 191.328 C 0.160 190.684,0.105 191.211,0.105 192.500 M75.449 191.328 L 74.531 192.344 75.547 191.426 C 76.494 190.570,76.706 190.313,76.465 190.313 C 76.411 190.313,75.954 190.770,75.449 191.328 M399.795 192.656 C 399.796 194.031,399.851 194.555,399.917 193.820 C 399.983 193.085,399.982 191.960,399.915 191.320 C 399.848 190.680,399.793 191.281,399.795 192.656 M246.074 191.641 L 245.156 192.656 246.172 191.738 C 246.730 191.234,247.188 190.777,247.188 190.723 C 247.188 190.481,246.930 190.694,246.074 191.641 M287.954 192.266 L 286.719 193.594 288.047 192.358 C 289.282 191.210,289.519 190.938,289.282 190.938 C 289.231 190.938,288.633 191.535,287.954 192.266 M133.672 192.101 C 134.230 192.170,135.145 192.170,135.703 192.101 C 136.262 192.032,135.805 191.975,134.688 191.975 C 133.570 191.975,133.113 192.032,133.672 192.101 M145.698 193.438 C 145.698 194.039,145.762 194.285,145.840 193.984 C 145.919 193.684,145.919 193.191,145.840 192.891 C 145.762 192.590,145.698 192.836,145.698 193.438 M96.969 198.438 C 96.969 199.383,97.027 199.770,97.099 199.297 C 97.170 198.824,97.170 198.051,97.099 197.578 C 97.027 197.105,96.969 197.492,96.969 198.438 M324.343 200.093 C 324.489 200.239,325.083 200.309,325.663 200.249 C 326.693 200.143,326.686 200.137,325.399 199.985 C 324.673 199.899,324.198 199.948,324.343 200.093 M376.948 202.188 C 376.948 202.789,377.012 203.035,377.090 202.734 C 377.169 202.434,377.169 201.941,377.090 201.641 C 377.012 201.340,376.948 201.586,376.948 202.188 M247.597 203.594 C 247.599 204.625,247.657 205.009,247.726 204.448 C 247.796 203.886,247.795 203.042,247.723 202.573 C 247.652 202.103,247.595 202.563,247.597 203.594 M45.089 203.906 C 45.092 204.766,45.152 205.080,45.224 204.605 C 45.296 204.130,45.294 203.427,45.220 203.043 C 45.146 202.658,45.087 203.047,45.089 203.906 M70.409 204.219 C 70.411 205.250,70.469 205.634,70.539 205.073 C 70.609 204.511,70.607 203.667,70.536 203.198 C 70.464 202.728,70.408 203.188,70.409 204.219 M228.125 203.561 C 228.125 204.046,227.765 204.091,224.531 204.003 C 222.554 203.950,220.937 204.012,220.937 204.141 C 220.938 204.648,228.133 204.406,228.330 203.893 C 228.431 203.628,228.427 203.323,228.320 203.216 C 228.213 203.109,228.125 203.264,228.125 203.561 M0.105 207.188 C 0.105 208.477,0.160 209.004,0.228 208.359 C 0.295 207.715,0.295 206.660,0.228 206.016 C 0.160 205.371,0.105 205.898,0.105 207.188 M399.790 207.031 C 399.791 208.234,399.848 208.688,399.916 208.040 C 399.983 207.392,399.982 206.407,399.913 205.852 C 399.844 205.298,399.789 205.828,399.790 207.031 M301.484 209.921 C 303.246 209.976,306.129 209.976,307.891 209.921 C 309.652 209.865,308.211 209.819,304.688 209.819 C 301.164 209.819,299.723 209.865,301.484 209.921 M228.829 212.031 C 228.832 212.719,228.896 212.963,228.971 212.574 C 229.046 212.186,229.043 211.623,228.965 211.324 C 228.886 211.026,228.825 211.344,228.829 212.031 M204.688 214.344 C 204.688 214.630,203.885 214.704,201.562 214.630 C 199.843 214.576,198.436 214.637,198.437 214.766 C 198.438 215.140,204.623 215.045,204.857 214.667 C 204.970 214.483,204.978 214.249,204.875 214.146 C 204.772 214.043,204.688 214.132,204.688 214.344 M182.499 214.766 C 182.500 214.895,183.941 214.977,185.703 214.950 C 189.035 214.898,188.657 214.764,184.765 214.617 C 183.518 214.570,182.499 214.637,182.499 214.766 M314.400 214.777 C 314.368 215.487,320.668 215.468,320.811 214.758 C 320.855 214.539,320.819 214.504,320.732 214.680 C 320.492 215.164,314.779 215.098,314.582 214.609 C 314.489 214.380,314.414 214.449,314.400 214.777 M211.875 215.000 L 208.594 215.190 211.778 215.251 C 213.634 215.287,215.044 215.182,215.156 215.000 C 215.262 214.828,215.306 214.715,215.253 214.749 C 215.200 214.782,213.680 214.895,211.875 215.000 M126.016 215.215 C 126.316 215.294,126.809 215.294,127.109 215.215 C 127.410 215.137,127.164 215.073,126.563 215.073 C 125.961 215.073,125.715 215.137,126.016 215.215 M230.547 215.230 C 231.449 215.294,232.926 215.294,233.828 215.230 C 234.730 215.167,233.992 215.116,232.188 215.116 C 230.383 215.116,229.645 215.167,230.547 215.230 M331.641 215.231 C 332.629 215.293,334.246 215.293,335.234 215.231 C 336.223 215.169,335.414 215.118,333.438 215.118 C 331.461 215.118,330.652 215.169,331.641 215.231 M31.875 223.281 C 32.809 224.227,33.643 225.000,33.729 225.000 C 33.815 225.000,33.121 224.227,32.188 223.281 C 31.254 222.336,30.420 221.563,30.334 221.563 C 30.248 221.563,30.941 222.336,31.875 223.281 M52.266 239.903 C 52.566 239.982,53.059 239.982,53.359 239.903 C 53.660 239.824,53.414 239.760,52.813 239.760 C 52.211 239.760,51.965 239.824,52.266 239.903 M58.281 341.250 C 59.302 342.281,60.207 343.125,60.293 343.125 C 60.379 343.125,59.614 342.281,58.594 341.250 C 57.573 340.219,56.668 339.375,56.582 339.375 C 56.496 339.375,57.261 340.219,58.281 341.250 M341.396 341.328 L 339.531 343.281 341.484 341.416 C 342.559 340.390,343.438 339.511,343.438 339.463 C 343.438 339.232,343.129 339.514,341.396 341.328 M192.734 399.914 C 193.293 399.983,194.207 399.983,194.766 399.914 C 195.324 399.844,194.867 399.788,193.750 399.788 C 192.633 399.788,192.176 399.844,192.734 399.914 M205.234 399.914 C 205.793 399.983,206.707 399.983,207.266 399.914 C 207.824 399.844,207.367 399.788,206.250 399.788 C 205.133 399.788,204.676 399.844,205.234 399.914 " stroke="none" fill="#7c94bd" fill-rule="evenodd"></path><path id="path4" d="M230.547 42.408 C 230.934 42.483,231.566 42.483,231.953 42.408 C 232.340 42.334,232.023 42.273,231.250 42.273 C 230.477 42.273,230.160 42.334,230.547 42.408 M230.778 103.438 C 230.778 132.227,230.814 144.004,230.859 129.609 C 230.904 115.215,230.904 91.660,230.859 77.266 C 230.814 62.871,230.778 74.648,230.778 103.438 M344.063 61.660 C 344.063 61.714,344.520 62.171,345.078 62.676 L 346.094 63.594 345.176 62.578 C 344.320 61.631,344.063 61.419,344.063 61.660 M260.725 75.234 C 265.851 75.282,274.148 75.282,279.163 75.234 C 284.178 75.186,279.984 75.146,269.844 75.147 C 259.703 75.147,255.600 75.186,260.725 75.234 M254.764 116.641 L 254.841 155.781 254.922 116.799 L 255.002 77.818 272.892 77.734 L 290.781 77.651 272.734 77.576 L 254.688 77.500 254.764 116.641 M168.253 102.656 C 168.240 113.656,168.285 122.130,168.352 121.488 L 168.475 120.319 181.816 120.234 L 195.156 120.149 181.799 120.075 L 168.442 120.000 168.359 101.328 L 168.276 82.656 168.253 102.656 M216.960 96.563 C 216.960 97.336,217.021 97.652,217.096 97.266 C 217.170 96.879,217.170 96.246,217.096 95.859 C 217.021 95.473,216.960 95.789,216.960 96.563 M215.775 127.813 C 215.775 143.195,215.813 149.488,215.859 141.797 C 215.906 134.105,215.906 121.520,215.859 113.828 C 215.813 106.137,215.775 112.430,215.775 127.813 M212.576 101.153 C 213.089 101.287,213.126 102.927,213.203 128.538 L 213.285 155.781 213.361 128.359 L 213.438 100.938 212.734 100.974 C 212.208 101.001,212.168 101.046,212.576 101.153 M286.797 107.734 C 293.027 107.782,303.223 107.782,309.453 107.734 C 315.684 107.687,310.586 107.648,298.125 107.648 C 285.664 107.648,280.566 107.687,286.797 107.734 M174.203 145.313 C 174.203 151.070,174.245 153.426,174.296 150.547 C 174.348 147.668,174.348 142.957,174.296 140.078 C 174.245 137.199,174.203 139.555,174.203 145.313 M138.210 137.500 C 138.210 138.273,138.271 138.590,138.346 138.203 C 138.420 137.816,138.420 137.184,138.346 136.797 C 138.271 136.410,138.210 136.727,138.210 137.500 M132.101 146.796 L 159.045 146.878 159.146 151.330 L 159.246 155.781 159.233 151.250 L 159.219 146.719 132.188 146.716 L 105.156 146.713 132.101 146.796 M151.047 158.125 C 151.047 159.586,151.101 160.184,151.166 159.453 C 151.232 158.723,151.232 157.527,151.166 156.797 C 151.101 156.066,151.047 156.664,151.047 158.125 M160.734 158.125 C 160.734 159.586,160.788 160.184,160.854 159.453 C 160.920 158.723,160.920 157.527,160.854 156.797 C 160.788 156.066,160.734 156.664,160.734 158.125 M170.422 158.125 C 170.422 159.586,170.476 160.184,170.541 159.453 C 170.607 158.723,170.607 157.527,170.541 156.797 C 170.476 156.066,170.422 156.664,170.422 158.125 M208.859 158.125 C 208.859 159.586,208.913 160.184,208.979 159.453 C 209.045 158.723,209.045 157.527,208.979 156.797 C 208.913 156.066,208.859 156.664,208.859 158.125 M218.547 158.125 C 218.547 159.586,218.601 160.184,218.666 159.453 C 218.732 158.723,218.732 157.527,218.666 156.797 C 218.601 156.066,218.547 156.664,218.547 158.125 M228.234 158.125 C 228.234 159.586,228.288 160.184,228.354 159.453 C 228.420 158.723,228.420 157.527,228.354 156.797 C 228.288 156.066,228.234 156.664,228.234 158.125 M48.433 159.312 L 48.584 161.094 48.686 159.566 C 48.742 158.725,48.674 157.923,48.535 157.784 C 48.395 157.644,48.349 158.331,48.433 159.312 M139.063 174.219 L 139.063 180.625 143.133 180.625 L 147.204 180.625 147.118 185.391 L 147.031 190.156 146.039 190.252 L 145.047 190.349 145.527 191.498 C 146.517 193.868,145.371 197.400,143.070 199.067 L 141.781 200.000 144.484 200.000 L 147.188 200.000 147.188 204.688 L 147.188 209.375 145.506 209.375 C 143.929 209.375,143.769 209.448,142.936 210.547 C 141.885 211.932,141.093 212.654,139.922 213.296 C 139.089 213.752,139.063 213.848,139.063 216.414 L 139.063 219.063 135.000 219.063 L 130.938 219.063 130.990 220.391 C 131.042 221.699,131.044 221.702,131.163 220.585 L 131.283 219.451 138.897 219.222 C 143.085 219.097,146.663 219.088,146.849 219.203 C 147.067 219.338,147.188 221.068,147.188 224.081 L 147.188 228.750 143.125 228.750 L 139.063 228.750 139.063 230.781 L 139.063 232.813 218.750 232.813 L 298.438 232.813 298.438 225.781 L 298.438 218.750 294.531 218.750 L 290.625 218.750 290.625 213.906 L 290.625 209.063 291.400 209.063 C 291.948 209.063,292.223 208.856,292.338 208.359 C 292.427 207.973,292.922 205.902,293.437 203.758 C 293.953 201.614,294.375 199.750,294.375 199.617 C 294.375 199.484,293.531 199.375,292.500 199.375 L 290.625 199.375 290.625 194.844 C 290.625 192.352,290.538 190.313,290.431 190.313 C 290.325 190.313,288.954 191.534,287.385 193.028 C 285.815 194.521,283.301 196.790,281.797 198.069 C 278.552 200.829,278.663 200.209,280.895 203.097 C 283.754 206.797,287.500 213.359,287.500 214.667 C 287.500 214.882,286.307 215.000,284.131 215.000 L 280.762 215.000 279.574 212.598 C 277.519 208.445,274.102 203.544,273.641 204.087 C 273.579 204.160,273.002 206.398,272.359 209.063 C 271.716 211.727,271.123 214.152,271.042 214.453 C 270.914 214.929,270.478 215.000,267.689 215.000 L 264.482 215.000 267.788 201.097 L 271.094 187.195 274.297 187.191 C 276.059 187.189,277.500 187.242,277.500 187.308 C 277.500 187.375,277.008 189.471,276.406 191.966 C 275.805 194.461,275.313 196.597,275.313 196.712 C 275.312 196.979,282.157 190.870,284.207 188.773 L 285.758 187.188 289.661 187.188 L 293.564 187.187 292.344 188.437 L 291.123 189.687 293.985 189.688 L 296.847 189.688 297.059 188.553 C 297.196 187.824,297.480 187.365,297.855 187.267 C 298.408 187.122,298.438 186.618,298.438 177.464 L 298.438 167.813 287.500 167.813 L 276.563 167.813 276.563 169.688 L 276.563 171.563 271.719 171.563 L 266.875 171.563 266.875 169.688 L 266.875 167.813 262.031 167.813 L 257.188 167.813 257.188 169.688 L 257.188 171.563 252.344 171.563 L 247.500 171.563 247.500 169.688 L 247.500 167.813 242.656 167.813 L 237.813 167.813 237.813 169.688 L 237.813 171.563 233.125 171.563 L 228.438 171.563 228.438 169.688 L 228.438 167.813 223.438 167.813 L 218.438 167.813 218.438 169.688 L 218.438 171.563 213.750 171.563 L 209.063 171.563 209.063 169.688 L 209.063 167.813 204.219 167.813 L 199.375 167.813 199.375 169.688 L 199.375 171.563 194.531 171.563 L 189.688 171.563 189.688 169.688 L 189.688 167.813 184.844 167.813 L 180.000 167.813 180.000 169.688 L 180.000 171.563 175.156 171.563 L 170.313 171.563 170.313 169.688 L 170.313 167.813 165.469 167.813 L 160.625 167.813 160.625 169.688 L 160.625 171.563 155.938 171.563 L 151.250 171.563 151.250 169.688 L 151.250 167.813 145.156 167.813 L 139.063 167.813 139.063 174.219 M48.580 180.781 C 48.580 187.656,48.621 190.424,48.672 186.932 C 48.722 183.440,48.722 177.815,48.671 174.432 C 48.621 171.049,48.580 173.906,48.580 180.781 M27.324 171.953 L 26.406 172.969 27.422 172.051 C 28.369 171.195,28.581 170.938,28.340 170.938 C 28.286 170.938,27.829 171.395,27.324 171.953 M131.010 181.563 C 131.010 182.164,131.074 182.410,131.153 182.109 C 131.232 181.809,131.232 181.316,131.153 181.016 C 131.074 180.715,131.010 180.961,131.010 181.563 M71.323 184.375 C 71.323 184.977,71.387 185.223,71.465 184.922 C 71.544 184.621,71.544 184.129,71.465 183.828 C 71.387 183.527,71.323 183.773,71.323 184.375 M105.525 185.858 C 130.645 185.940,130.896 185.947,131.036 186.569 C 131.152 187.088,131.170 187.074,131.135 186.489 L 131.094 185.781 105.625 185.779 L 80.156 185.776 105.525 185.858 M262.940 187.650 C 264.128 188.069,265.208 188.523,265.341 188.659 C 265.526 188.849,263.770 193.209,263.332 193.647 C 263.284 193.696,262.479 193.443,261.544 193.085 C 254.146 190.256,247.428 195.730,247.874 204.226 C 248.147 209.431,252.071 211.414,258.085 209.388 C 259.179 209.020,260.109 208.761,260.153 208.813 C 260.267 208.945,260.867 213.888,260.782 213.993 C 259.629 215.423,250.662 216.026,247.675 214.873 C 238.052 211.162,239.477 194.214,249.876 188.673 C 253.563 186.708,259.053 186.278,262.940 187.650 M158.442 190.625 C 159.934 196.417,160.438 198.125,160.658 198.125 C 160.870 198.125,164.456 193.374,167.322 189.297 L 168.805 187.188 172.215 187.188 C 174.090 187.188,175.624 187.293,175.622 187.422 C 175.617 187.797,167.659 198.332,165.109 201.339 L 162.780 204.084 161.481 209.542 L 160.181 215.000 156.929 215.000 C 153.710 215.000,153.679 214.993,153.862 214.297 C 153.964 213.910,154.553 211.461,155.172 208.854 L 156.298 204.115 155.056 200.729 C 153.513 196.519,151.352 189.767,151.073 188.281 L 150.864 187.166 154.231 187.255 L 157.597 187.344 158.442 190.625 M194.337 192.109 C 193.680 194.816,193.139 197.207,193.134 197.422 C 193.115 198.254,202.455 197.947,202.660 197.109 C 202.754 196.723,203.313 194.385,203.901 191.915 C 205.183 186.538,204.604 187.147,208.334 187.254 L 211.437 187.344 208.137 201.094 L 204.837 214.844 201.637 214.933 C 199.877 214.982,198.439 214.911,198.441 214.777 C 198.446 214.507,200.850 204.549,201.122 203.672 C 201.279 203.167,200.920 203.125,196.485 203.125 L 191.677 203.125 190.282 208.984 L 188.887 214.844 185.694 214.933 C 183.937 214.982,182.500 214.944,182.500 214.849 C 182.500 214.644,188.703 188.531,188.941 187.734 C 189.083 187.260,189.528 187.188,192.318 187.188 L 195.530 187.188 194.337 192.109 M232.150 190.703 C 233.257 196.637,235.313 212.071,235.313 214.448 L 235.313 215.313 232.207 215.313 L 229.101 215.313 228.923 213.984 C 228.826 213.254,228.712 211.883,228.670 210.938 L 228.594 209.219 223.535 209.133 L 218.475 209.047 216.816 212.175 L 215.156 215.303 211.770 215.308 L 208.384 215.313 209.561 213.203 C 212.634 207.697,217.965 198.949,221.654 193.359 L 225.727 187.188 228.611 187.188 L 231.495 187.188 232.150 190.703 M316.025 191.793 C 316.847 191.857,318.112 191.856,318.838 191.791 C 319.563 191.725,318.891 191.672,317.344 191.673 C 315.797 191.674,315.203 191.728,316.025 191.793 M340.088 191.793 C 340.909 191.857,342.175 191.856,342.900 191.791 C 343.625 191.725,342.953 191.672,341.406 191.673 C 339.859 191.674,339.266 191.728,340.088 191.793 M139.148 194.688 C 139.148 195.461,139.209 195.777,139.283 195.391 C 139.358 195.004,139.358 194.371,139.283 193.984 C 139.209 193.598,139.148 193.914,139.148 194.688 M224.134 198.853 C 222.548 201.486,221.250 203.735,221.250 203.851 C 221.250 203.968,222.797 204.063,224.688 204.063 C 227.515 204.063,228.125 203.980,228.125 203.600 C 228.125 202.348,227.393 195.087,227.218 194.611 C 227.073 194.214,226.238 195.362,224.134 198.853 M22.585 199.375 C 22.585 200.148,22.646 200.465,22.721 200.078 C 22.795 199.691,22.795 199.059,22.721 198.672 C 22.646 198.285,22.585 198.602,22.585 199.375 M56.504 203.359 C 59.135 203.411,63.354 203.411,65.879 203.359 C 68.403 203.306,66.250 203.263,61.094 203.263 C 55.938 203.264,53.872 203.307,56.504 203.359 M80.078 203.358 C 81.926 203.413,84.949 203.413,86.797 203.358 C 88.645 203.303,87.133 203.258,83.438 203.258 C 79.742 203.258,78.230 203.303,80.078 203.358 M97.743 203.354 C 98.478 203.420,99.603 203.419,100.243 203.352 C 100.883 203.285,100.281 203.231,98.906 203.232 C 97.531 203.233,97.008 203.288,97.743 203.354 M111.641 203.359 C 113.832 203.412,117.418 203.412,119.609 203.359 C 121.801 203.305,120.008 203.261,115.625 203.261 C 111.242 203.261,109.449 203.305,111.641 203.359 M131.062 207.969 L 131.094 209.531 133.281 209.556 L 135.469 209.581 133.376 209.464 L 131.283 209.347 131.157 207.877 L 131.030 206.406 131.062 207.969 M341.250 215.000 C 341.250 215.617,341.017 215.626,323.828 215.700 L 306.406 215.776 322.573 215.859 L 338.740 215.943 338.828 224.456 L 338.917 232.969 338.990 224.453 L 339.063 215.938 340.151 215.938 L 341.240 215.938 341.328 224.453 L 341.417 232.969 341.490 223.672 C 341.530 218.559,341.492 214.375,341.406 214.375 C 341.320 214.375,341.250 214.656,341.250 215.000 M300.716 218.670 C 301.883 218.730,303.712 218.729,304.779 218.669 C 305.846 218.608,304.891 218.558,302.656 218.559 C 300.422 218.559,299.549 218.609,300.716 218.670 M131.045 226.406 C 131.046 227.781,131.101 228.305,131.167 227.570 C 131.233 226.835,131.232 225.710,131.165 225.070 C 131.098 224.430,131.043 225.031,131.045 226.406 M81.685 228.750 C 81.685 231.070,81.734 232.020,81.794 230.859 C 81.854 229.699,81.854 227.801,81.794 226.641 C 81.734 225.480,81.685 226.430,81.685 228.750 M372.483 228.359 L 371.406 229.531 372.578 228.454 C 373.223 227.862,373.750 227.335,373.750 227.282 C 373.750 227.044,373.486 227.269,372.483 228.359 M81.703 250.469 C 81.703 256.313,81.745 258.659,81.796 255.683 C 81.848 252.707,81.848 247.926,81.796 245.058 C 81.745 242.190,81.703 244.625,81.703 250.469 M139.063 241.406 L 139.063 242.813 146.397 242.813 L 153.731 242.813 153.819 246.797 L 153.906 250.781 154.769 250.819 C 155.560 250.854,155.567 250.846,154.848 250.720 L 154.063 250.583 154.063 245.292 L 154.063 240.000 146.563 240.000 L 139.063 240.000 139.063 241.406 M163.438 245.298 L 163.438 250.596 161.328 250.689 L 159.219 250.781 159.215 270.469 L 159.212 290.156 159.296 270.547 L 159.380 250.938 161.565 250.938 L 163.750 250.938 163.750 246.875 L 163.750 242.813 168.438 242.813 L 173.125 242.813 173.125 246.875 C 173.125 250.278,173.201 250.938,173.594 250.938 C 174.237 250.938,174.315 339.905,173.672 340.626 C 173.340 340.998,173.363 341.002,173.828 340.650 C 174.610 340.058,174.687 251.038,173.906 250.738 C 173.515 250.588,173.438 249.683,173.438 245.279 L 173.438 240.000 168.438 240.000 L 163.438 240.000 163.438 245.298 M182.812 241.484 L 182.812 242.969 187.656 242.875 L 192.500 242.782 192.500 241.391 L 192.500 240.000 187.656 240.000 L 182.813 240.000 182.812 241.484 M202.188 241.391 L 202.188 242.782 207.032 242.875 L 211.876 242.969 211.875 241.484 L 211.875 240.000 207.031 240.000 L 202.188 240.000 202.188 241.391 M221.250 245.294 L 221.250 250.587 220.078 250.710 L 218.906 250.832 220.234 250.885 L 221.563 250.938 221.563 246.875 L 221.563 242.813 226.250 242.813 L 230.938 242.813 230.938 246.875 L 230.938 250.938 235.859 250.868 L 240.781 250.799 236.016 250.704 L 231.250 250.609 231.250 245.304 L 231.250 240.000 226.250 240.000 L 221.250 240.000 221.250 245.294 M240.625 241.484 L 240.624 242.969 245.468 242.875 L 250.313 242.782 250.313 246.860 L 250.313 250.938 255.234 250.868 L 260.156 250.799 255.391 250.704 L 250.625 250.609 250.623 247.414 C 250.622 245.656,250.531 243.270,250.421 242.109 L 250.222 240.000 245.424 240.000 L 240.625 240.000 240.625 241.484 M260.000 241.406 L 260.000 242.813 264.844 242.813 L 269.688 242.813 269.688 241.406 L 269.688 240.000 264.844 240.000 L 260.000 240.000 260.000 241.406 M279.375 241.406 L 279.375 242.813 288.906 242.813 L 298.438 242.813 298.438 241.406 L 298.438 240.000 288.906 240.000 L 279.375 240.000 279.375 241.406 M338.749 246.938 C 338.664 250.840,338.702 253.924,338.834 253.791 C 338.967 253.659,339.037 250.466,338.990 246.697 L 338.905 239.844 338.749 246.938 M341.384 246.875 C 341.384 250.742,341.428 252.324,341.483 250.391 C 341.538 248.457,341.538 245.293,341.483 243.359 C 341.428 241.426,341.384 243.008,341.384 246.875 M178.838 250.855 C 179.659 250.920,180.925 250.919,181.650 250.853 C 182.375 250.788,181.703 250.735,180.156 250.736 C 178.609 250.737,178.016 250.790,178.838 250.855 M193.047 250.846 C 193.434 250.920,194.066 250.920,194.453 250.846 C 194.840 250.771,194.523 250.710,193.750 250.710 C 192.977 250.710,192.660 250.771,193.047 250.846 M198.333 250.833 C 198.044 251.123,198.070 327.117,198.359 327.295 C 198.488 327.375,198.557 310.234,198.513 289.204 L 198.433 250.967 200.388 250.856 L 202.344 250.745 200.443 250.685 C 199.397 250.652,198.448 250.719,198.333 250.833 M213.671 250.848 L 215.623 250.967 215.704 300.093 L 215.784 349.219 215.783 300.000 L 215.781 250.781 213.750 250.755 L 211.719 250.729 213.671 250.848 M272.124 250.858 C 273.550 250.916,275.800 250.915,277.124 250.857 C 278.448 250.799,277.281 250.751,274.531 250.751 C 271.781 250.752,270.698 250.800,272.124 250.858 M254.842 288.906 L 254.844 326.406 276.328 326.410 L 297.813 326.413 276.408 326.329 L 255.003 326.246 254.921 288.826 L 254.840 251.406 254.842 288.906 M336.010 258.125 C 336.010 258.727,336.074 258.973,336.153 258.672 C 336.232 258.371,336.232 257.879,336.153 257.578 C 336.074 257.277,336.010 257.523,336.010 258.125 M78.047 268.971 C 78.434 269.045,79.066 269.045,79.453 268.971 C 79.840 268.896,79.523 268.835,78.750 268.835 C 77.977 268.835,77.660 268.896,78.047 268.971 M322.734 299.596 C 323.121 299.670,323.754 299.670,324.141 299.596 C 324.527 299.521,324.211 299.460,323.438 299.460 C 322.664 299.460,322.348 299.521,322.734 299.596 M296.250 302.188 L 272.969 302.350 296.153 302.425 C 311.354 302.474,319.405 302.392,319.531 302.188 C 319.637 302.016,319.681 301.909,319.628 301.950 C 319.575 301.991,309.055 302.098,296.250 302.188 M191.023 330.313 C 191.023 331.086,191.084 331.402,191.158 331.016 C 191.233 330.629,191.233 329.996,191.158 329.609 C 191.084 329.223,191.023 329.539,191.023 330.313 M53.750 336.348 C 53.750 336.402,54.207 336.859,54.766 337.363 L 55.781 338.281 54.863 337.266 C 54.008 336.319,53.750 336.106,53.750 336.348 M147.144 341.332 C 147.275 341.463,153.139 341.533,160.175 341.488 L 172.969 341.406 159.937 341.250 C 152.770 341.164,147.013 341.201,147.144 341.332 M153.828 343.984 C 157.566 344.034,163.684 344.034,167.422 343.984 C 171.160 343.934,168.102 343.893,160.625 343.893 C 153.148 343.893,150.090 343.934,153.828 343.984 M191.819 353.047 C 196.343 353.096,203.655 353.095,208.069 353.047 C 212.483 352.998,208.781 352.958,199.844 352.958 C 190.906 352.958,187.295 352.998,191.819 353.047 " stroke="none" fill="#28488e" fill-rule="evenodd"></path></g></svg>